<?xml version="1.0" encoding="utf-8"?>
<!-- Generator: Adobe Illustrator 24.1.1, SVG Export Plug-In . SVG Version: 6.00 Build 0)  -->
<svg version="1.1" id="Слой_1" xmlns="http://www.w3.org/2000/svg" xmlns:xlink="http://www.w3.org/1999/xlink" x="0px" y="0px"
	 viewBox="0 0 500 500" style="enable-background:new 0 0 500 500;" xml:space="preserve">
<style type="text/css">
	.st0{fill:#4D7EBF;}
</style>
<g>
	<path class="st0" d="M251.6,356.9h0.5c3.7,0,8-0.5,11.7-0.5c38.8-3.7,71.7-22.8,94.5-51c22.8-27.6,34.5-64.3,30.8-102.5
		c-3.7-38.8-22.8-71.7-51-94.5c-27.6-22.8-64.3-34.5-102.5-30.8c-38.8,3.7-71.7,22.8-94.5,51c-22.8,27.6-34.5,64.3-30.8,102.5
		c1.6,14.9,5.3,28.7,10.6,41.4c10.1,23.9,27.6,42.5,42,64.3c14.3,21.2,23.9,46.7,26.6,73.8l0,0c0.5,3.7,0.5,6.9,0.5,10.6l0,0
		c17.5-4.2,32.4-14.3,43.6-27.6C243.1,382.9,248.9,370.7,251.6,356.9 M289.8,167.8c-12.2-10.1-28.7-15.4-46.2-13.8
		c-17,1.6-31.9,10.6-42,22.8c-10.1,12.2-15.4,28.7-13.8,46.2c1.6,17,10.6,31.9,22.8,42.5c12.2,10.1,28.7,15.4,46.2,13.8
		c17-1.6,31.9-10.6,42.5-22.8c10.1-12.2,15.4-28.7,13.8-46.2C310.5,193.3,302,177.9,289.8,167.8 M228.2,1.1
		C287.7-4.8,344,13.8,387,48.9s72.2,86.6,78.6,146.1c5.8,59.5-12.7,115.8-47.8,158.8c-28.1,35.1-67.4,61.1-113.1,72.8
		c-3.2,4.8-6.9,9.6-10.6,14.3c-26,31.9-64.3,54.2-108.9,58.4h-1.6l0,0c-32.4,3.2-63.2-3.7-90.3-18.1c1.1-1.1,2.1-2.1,2.7-3.2
		c13.3-16.5,20.7-37.7,18.6-60.5l0,0c-1.1-12.7-5.3-24.4-11.2-34.5c-0.5-0.5-0.5-1.1-1.1-1.6c-3.2-4.8-6.9-10.1-11.2-15.9
		c-10.6-13.8-20.7-26.6-29.7-42c-14.3-25.5-23.9-54.2-27.1-85.5c-5.8-59.5,12.7-115.8,47.8-158.8C117.2,36.6,168.7,7.4,228.2,1.1"/>
</g>
</svg>
